<svg width="10" height="10" viewBox="0 0 10 10" fill="none" xmlns="http://www.w3.org/2000/svg">
<path d="M5.5 4V6H8.5V4H5.5ZM4.5 4H1.5V6H4.5V4ZM5.5 8.5H8.5V7H5.5V8.5ZM4.5 8.5V7H1.5V8.5H4.5ZM5.5 1.5V3H8.5V1.5H5.5ZM4.5 1.5H1.5V3H4.5V1.5ZM1 0.5H9C9.13261 0.5 9.25979 0.552678 9.35355 0.646447C9.44732 0.740215 9.5 0.867392 9.5 1V9C9.5 9.13261 9.44732 9.25979 9.35355 9.35355C9.25979 9.44732 9.13261 9.5 9 9.5H1C0.867392 9.5 0.740215 9.44732 0.646447 9.35355C0.552678 9.25979 0.5 9.13261 0.5 9V1C0.5 0.867392 0.552678 0.740215 0.646447 0.646447C0.740215 0.552678 0.867392 0.5 1 0.5Z" fill="#2967A1"/>
</svg>
